<svg id="Layer_3" data-name="Layer 3" xmlns="http://www.w3.org/2000/svg" viewBox="0 0 908.06 254.06"><path d="M357.54,170.85q0-21.79,14.56-36.29t37.19-14.49a59.12,59.12,0,0,1,20.15,3.52A45.72,45.72,0,0,1,446.27,134L435.1,152.22A42,42,0,0,0,423.43,145a33.3,33.3,0,0,0-13-2.83q-13.8,0-20.83,8.21a29.55,29.55,0,0,0-7,19.94,31.85,31.85,0,0,0,7.24,20.84Q397,200,410.39,200q14.08,0,26.22-12.14L449,205.49q-16,16.56-39.74,16.56-23.46,0-37.61-14.42T357.54,170.85Z" transform="translate(-25.96 -67.84)"/><path d="M482.7,220.39v-78H452.76v-20.7h84v20.7H506.85v78Z" transform="translate(-25.96 -67.84)"/><path d="M548.94,220.39V121.72h24.15v46.1L572,184.65h.28a142.48,142.48,0,0,1,8.28-16.83l27.32-46.1H632.3v98.67H608.15V174.44l1.1-16.84H609a142.72,142.72,0,0,1-8.28,16.84l-27.46,45.95Z" transform="translate(-25.96 -67.84)"/><path d="M649.13,220.39l8.14-98.67h26.22l14.36,41.68,5,16.28h.28q2.76-9.93,5-16.28l14.35-41.68h26.22l8,98.67H732.48l-3-44.43q-.29-3.32-.28-7.45t.14-6.63l.14-2.48h-.28q-3.31,10.35-5.52,16.56L713.3,204.52H692.6L682.25,176l-5.52-16.56h-.27a126.78,126.78,0,0,1,0,16.56l-3,44.43Z" transform="translate(-25.96 -67.84)"/><path d="M770.71,214.6l10.49-18.08q5.92,5,10.9,5,5.79,0,7.86-5.11l-38.08-74.66h26.49l16.42,35.47,5.39,13.25h.27q1.51-6.21,3.87-13.11l12.14-35.61h25.39l-29.12,74a82.27,82.27,0,0,1-4.21,9.18,52.73,52.73,0,0,1-5.65,8.21,24.33,24.33,0,0,1-8.49,6.62,25.78,25.78,0,0,1-11.18,2.35A38.49,38.49,0,0,1,770.71,214.6Z" transform="translate(-25.96 -67.84)"/><path d="M846.33,199.56A18.56,18.56,0,0,0,856.75,195q4.07-3.72,6.69-13.8t2.63-27V121.72h66.24v98.67H908.16v-78H889v12q0,35.48-10.62,51.27t-32,15.8Z" transform="translate(-25.96 -67.84)"/><g id="Logo"><path d="M117,224.36c-14.25,0-22.89-9.07-22.89-25.4,0-20,9.94-26.07,25.27-28.57V151.12H92.79C88,158.83,82,172.66,82,196c0,32.43,16.63,52.83,44.48,52.83,18.95,0,30.06-8.52,36.94-24l-27.8-10.14C131.43,221.5,125.79,224.36,117,224.36Z" transform="translate(-25.96 -67.84)"/><path d="M189.53,143.86c-17.34,0-28.68,7.8-36.12,20.39l28.71,11.29c4.13-3.91,9.52-5.6,17.13-5.6,16.19,0,25.91,9.29,25.91,29.93,0,20.41-8.85,28.34-28.5,31.06v20h27.85c5.4-9.3,12.1-23.59,12.1-48.53C236.61,164.72,219.33,143.86,189.53,143.86Z" transform="translate(-25.96 -67.84)"/><path id="S_Vert" data-name="S Vert" d="M106,262.59V234.73H126c2.72,19.65,10.66,28.51,31.06,28.51,20.64,0,29.93-9.72,29.93-25.92,0-15.76-7.25-22-26.52-27.21l-15.88-4.31c-23.35-6.27-36.5-17.71-36.5-41.25,0-27.86,20.41-44.48,52.83-44.48,23.35,0,37.18,6,44.89,10.79v26.56H186.53c-2.49-15.33-8.62-25.26-28.57-25.26-16.32,0-25.39,8.64-25.39,22.89,0,13.6,6.8,19.65,24.48,24.4l15.65,4.1c23.81,6.27,40.36,18.79,40.36,44.06,0,29.8-20.86,47.07-58.5,47.07C129.62,274.68,115.33,268,106,262.59Z" transform="translate(-25.96 -67.84)"/><path d="M160,316.85a119.94,119.94,0,0,1-80.58-31H72.1a125.24,125.24,0,0,0,175.88,0h-7.35A119.94,119.94,0,0,1,160,316.85Z" transform="translate(-25.96 -67.84)"/><path d="M64.81,276.71a9.61,9.61,0,0,1-7.4,1.9,9.91,9.91,0,0,1-6.58-4.19,11.86,11.86,0,0,1-1.77-3.58,9.09,9.09,0,0,1-.3-3.86l4.16-.34a8.25,8.25,0,0,0,.21,2.68,6.55,6.55,0,0,0,1.06,2.38,5.05,5.05,0,0,0,3.7,2.33,5.77,5.77,0,0,0,4-1.19,6.23,6.23,0,0,0,2.45-3.55,4.92,4.92,0,0,0-1-4.27,7.14,7.14,0,0,0-4.94-2.73l1.35-4a10.36,10.36,0,0,1,7.2,4.35,9.58,9.58,0,0,1-2.1,14.06Z" transform="translate(-25.96 -67.84)"/><path d="M59.4,251.29l-13.52,7,2.69,5.19L45,265.36l-7.57-14.57L41,248.93l2.7,5.19,13.51-7Z" transform="translate(-25.96 -67.84)"/><path d="M53.88,240.36l-18.29,6.07L34.1,242l8.55-2.84,3.18-.83v0a28.19,28.19,0,0,1-3.63-.5L32,235.51,30.46,231l18.29-6.07,1.49,4.48-8.52,2.82-3.19.84v0a26.3,26.3,0,0,1,3.63.5l10.21,2.26Z" transform="translate(-25.96 -67.84)"/><path d="M48.1,222.55l-19.3,1.28-.75-5.07,7.63-4,3-1.43v0c-1.34-.16-2.43-.33-3.29-.49l-8.47-1.57-.76-5.06L45,201.78l.7,4.66-8.5,1.88c-.42.09-.89.18-1.43.26s-1,.14-1.28.17l-.48,0v.06c1.4.22,2.52.42,3.36.59l5.82,1.17.6,4-5.22,2.82-3,1.55V219a24.65,24.65,0,0,1,3.2-.48l8.67-.7Z" transform="translate(-25.96 -67.84)"/><path d="M44.15,199.68l-3.47-2.16a3.46,3.46,0,0,0,1-2.1,1.52,1.52,0,0,0-.95-1.57l-14.81,7,.16-5.17,7-3,2.62-1v0c-.8-.23-1.65-.5-2.54-.84l-6.87-2.59.15-5,14.27,6.14a16.93,16.93,0,0,1,1.76.88,10.49,10.49,0,0,1,1.57,1.16,4.69,4.69,0,0,1,1.24,1.69,4.94,4.94,0,0,1,.39,2.2A7.57,7.57,0,0,1,44.15,199.68Z" transform="translate(-25.96 -67.84)"/><path d="M41.57,184.84a3.63,3.63,0,0,0-.53-2.16,5.56,5.56,0,0,0-2.42-1.76,21.92,21.92,0,0,0-5.12-1.42l-6.24-1.1,2.25-12.74,19,3.34-.82,4.65-15-2.64L32,174.7l2.31.4c4.55.8,7.72,2.07,9.5,3.78a7,7,0,0,1,2,6.7Z" transform="translate(-25.96 -67.84)"/><path d="M48.78,151.58A3.58,3.58,0,0,1,47,156.29a3.41,3.41,0,0,1-2.73.08,3.56,3.56,0,1,1,4.52-4.79Z" transform="translate(-25.96 -67.84)"/><path d="M52.16,140.36A6.89,6.89,0,0,1,48.81,136a7.12,7.12,0,0,1,.88-5.55A6.73,6.73,0,0,1,54,127l1,2a5.14,5.14,0,0,0-3.26,2.46,4.55,4.55,0,0,0-.52,3.63,4.76,4.76,0,0,0,2.3,2.92,4.84,4.84,0,0,0,3.72.6,4.63,4.63,0,0,0,3-2.28,5.7,5.7,0,0,0,.72-2.22,5.82,5.82,0,0,0-.17-2.33l2.18.06a6.82,6.82,0,0,1,.16,2.87,8.15,8.15,0,0,1-1,2.93,7.24,7.24,0,0,1-4.41,3.51A6.89,6.89,0,0,1,52.16,140.36Z" transform="translate(-25.96 -67.84)"/><path d="M65.79,131,55,122.62l7.29-9.42,10.78,8.35-1.6,2.06-9-7-4.09,5.29,9,7Z" transform="translate(-25.96 -67.84)"/><path d="M69.91,114.7a6.74,6.74,0,0,1-2-5.13,7.23,7.23,0,0,1,2.29-5.09,7.33,7.33,0,0,1,5.15-2.21,6.72,6.72,0,0,1,5.09,2.15,6.81,6.81,0,0,1,2.06,5.15,7.19,7.19,0,0,1-2.29,5.1A7.3,7.3,0,0,1,75,116.86,6.81,6.81,0,0,1,69.91,114.7Zm1.91-1.87a4.83,4.83,0,0,0,3.43,1.56A4.66,4.66,0,0,0,80,109.73a4.79,4.79,0,0,0-1.47-3.46,4.71,4.71,0,0,0-3.41-1.53,4.69,4.69,0,0,0-4.75,4.65A4.73,4.73,0,0,0,71.82,112.83Z" transform="translate(-25.96 -67.84)"/><path d="M90.4,112.06,79.11,96.74l2-1.44.72,1,.54.87.05,0a4.55,4.55,0,0,1,.37-2.62,5.45,5.45,0,0,1,1.79-2.16,5.36,5.36,0,0,1,4.69-1,7.87,7.87,0,0,1,4.37,3.2,7.57,7.57,0,0,1,1.69,5.2A5.68,5.68,0,0,1,92.86,104a4.78,4.78,0,0,1-4.78.64l0,0a5.73,5.73,0,0,1,.79.9l3.68,5Zm-5.17-11.29a5.64,5.64,0,0,0,2.84,2.11,3.28,3.28,0,0,0,3.12-.52,3.54,3.54,0,0,0,1.48-2.71,5.21,5.21,0,0,0-1.19-3.53,5.55,5.55,0,0,0-3-2.22,3.43,3.43,0,0,0-3,.58A3.66,3.66,0,0,0,84,97.15,5.26,5.26,0,0,0,85.23,100.77Z" transform="translate(-25.96 -67.84)"/><path d="M102.6,97.21,97,87.28l-4.13,2.34-1.1-2,10.54-6,1.1,2L99.25,86l5.6,9.93Z" transform="translate(-25.96 -67.84)"/><path d="M114.5,83.81l-.67-2,13.41-4.52.67,2Z" transform="translate(-25.96 -67.84)"/><path d="M137.88,76.73a6.77,6.77,0,0,1,1.53-5.29,7.73,7.73,0,0,1,10.36-1.22,6.68,6.68,0,0,1,2.7,4.81A6.82,6.82,0,0,1,151,80.37,7.17,7.17,0,0,1,146,83a7.27,7.27,0,0,1-5.42-1.43A6.81,6.81,0,0,1,137.88,76.73Zm2.65-.31a4.81,4.81,0,0,0,1.76,3.34,4.67,4.67,0,0,0,6.6-.78,4.83,4.83,0,0,0,1-3.64,4.72,4.72,0,0,0-1.77-3.3,4.71,4.71,0,0,0-6.6.77A4.77,4.77,0,0,0,140.53,76.42Z" transform="translate(-25.96 -67.84)"/><path d="M154.27,80.16l1.21-1.73A4.74,4.74,0,0,0,159,80a3.3,3.3,0,0,0,2-.59,1.93,1.93,0,0,0,.79-1.66c0-1.38-.94-2.07-2.81-2.06h-1.67V73.84h1.42q2.6,0,2.58-2a1.74,1.74,0,0,0-.65-1.45,2.81,2.81,0,0,0-1.78-.51,5.47,5.47,0,0,0-3.31,1.21l-1-1.75a7.69,7.69,0,0,1,4.74-1.51,5.46,5.46,0,0,1,3.32,1,3.2,3.2,0,0,1,1.3,2.71,3.07,3.07,0,0,1-2,3.11v.06a3.12,3.12,0,0,1,2.47,3.19A3.64,3.64,0,0,1,163,81a6.12,6.12,0,0,1-3.73,1.12A7,7,0,0,1,154.27,80.16Z" transform="translate(-25.96 -67.84)"/><path d="M165.59,79.52l1.66.18c1.63-1.76,2.67-4.66,3.13-8.68l.28-2.49,9.16,1L178.53,81l1.93.21-.61,5.36-2.38-.27.36-3.21-10-1.13-.36,3.21L165,84.87Zm4.34.49,6,.67,1-9.29-4.07-.46-.08.72C172.41,75.37,171.44,78.15,169.93,80Z" transform="translate(-25.96 -67.84)"/><path d="M183,76.9a6.73,6.73,0,0,1,3.32-4.4,7.73,7.73,0,0,1,10.11,2.57,6.72,6.72,0,0,1,.8,5.46A6.83,6.83,0,0,1,193.88,85a7.63,7.63,0,0,1-10.09-2.58A6.77,6.77,0,0,1,183,76.9Zm2.58.66A4.81,4.81,0,0,0,186,81.3a4.66,4.66,0,0,0,6.44,1.64,4.82,4.82,0,0,0,2.2-3.06,4.71,4.71,0,0,0-.47-3.71A4.53,4.53,0,0,0,191.31,74a4.47,4.47,0,0,0-3.57.51A4.75,4.75,0,0,0,185.56,77.56Z" transform="translate(-25.96 -67.84)"/><path d="M195.85,93l7.23-17.6,2.24.92-.46,1.12-.46.92,0,0a4.57,4.57,0,0,1,2.44-1,5.5,5.5,0,0,1,2.77.41A5.36,5.36,0,0,1,213,81.27a7.89,7.89,0,0,1-.47,5.4,7.56,7.56,0,0,1-3.57,4.15,5.67,5.67,0,0,1-4.85.11,4.79,4.79,0,0,1-3-3.75l-.05,0a5.29,5.29,0,0,1-.35,1.14L198.26,94Zm7-10.28a5.67,5.67,0,0,0-.33,3.52,3.3,3.3,0,0,0,2.06,2.4,3.54,3.54,0,0,0,3.09-.14,5.25,5.25,0,0,0,2.4-2.85,5.5,5.5,0,0,0,.36-3.68,3.43,3.43,0,0,0-2.07-2.3,3.66,3.66,0,0,0-3.07.09A5.25,5.25,0,0,0,202.81,82.76Z" transform="translate(-25.96 -67.84)"/><path d="M214.92,87.82a6.73,6.73,0,0,1,4.4-3.32,7.71,7.71,0,0,1,9,5.26,6.72,6.72,0,0,1-.73,5.47,6.83,6.83,0,0,1-4.42,3.35,7.66,7.66,0,0,1-9-5.26A6.78,6.78,0,0,1,214.92,87.82Zm2.3,1.34a4.8,4.8,0,0,0-.6,3.73,4.64,4.64,0,0,0,5.74,3.34,4.82,4.82,0,0,0,3-2.33,4.71,4.71,0,0,0,.57-3.7,4.7,4.7,0,0,0-5.74-3.35A4.74,4.74,0,0,0,217.22,89.16Z" transform="translate(-25.96 -67.84)"/><path d="M226.18,102.69l8.34-10.79L239,95.35a5.49,5.49,0,0,1,2.08,2.75,3,3,0,0,1-.62,2.81,3.3,3.3,0,0,1-1.5,1.1,3.21,3.21,0,0,1-1.87.08v0a3.23,3.23,0,0,1,.06,4.14,3.36,3.36,0,0,1-2.83,1.44,6,6,0,0,1-3.51-1.44Zm3.19.15,2.21,1.72a3.28,3.28,0,0,0,2,.82,1.87,1.87,0,0,0,1.51-.81,1.9,1.9,0,0,0,.4-1.7,3.28,3.28,0,0,0-1.29-1.72l-2.2-1.7Zm3.69-4.77,2,1.56a2.49,2.49,0,0,0,1.72.64,2,2,0,0,0,1.4-.85q1.15-1.48-.76-3l-2-1.52Z" transform="translate(-25.96 -67.84)"/><path d="M235.57,110.13l1.64-1.67a3,3,0,0,0,3,.25,13.64,13.64,0,0,0,4.26-3.23l3-3,6.5,6.41-9.57,9.72-1.86-1.84,8.06-8.18-2.86-2.82-1.44,1.46q-3.31,3.36-5.89,4.12A4.84,4.84,0,0,1,235.57,110.13Z" transform="translate(-25.96 -67.84)"/><path d="M251.5,116.28a7.08,7.08,0,0,1,5.27-1.68,6.61,6.61,0,0,1,4.58,2.64,5.38,5.38,0,0,1,1.26,4.53,6.79,6.79,0,0,1-2.62,4.06,10.32,10.32,0,0,1-.94.6l-6.14-7.79a4.58,4.58,0,0,0-1.72,3.19,4.65,4.65,0,0,0,1.07,3.29,5.8,5.8,0,0,0,3.74,2.17l-.82,2.06a7.09,7.09,0,0,1-2.61-1,8.35,8.35,0,0,1-2.19-1.93,7,7,0,0,1-1.63-5.35A6.91,6.91,0,0,1,251.5,116.28Zm2.94,1.25,4.53,5.74a3.8,3.8,0,0,0,1.46-2.41,3.11,3.11,0,0,0-.7-2.41,3.88,3.88,0,0,0-2.38-1.48A4.31,4.31,0,0,0,254.44,117.53Z" transform="translate(-25.96 -67.84)"/><path d="M255.48,132.64l11.72-7,1.34,2.25-4.77,2.84,3.52,5.93,4.78-2.84,1.33,2.25-11.72,7-1.34-2.25,5-3-3.53-5.93-5,3Z" transform="translate(-25.96 -67.84)"/><path d="M263.23,146.15l12.57-5.32,1,2.31-7.49,3.17a12.36,12.36,0,0,1-1.72.64l0,.05a17.22,17.22,0,0,1,2.16.41l9.78,2.24,1,2.33L268,157.29,267,155l7.5-3.17c.23-.1.56-.22,1-.38l.69-.25,0,0-2.12-.39-9.8-2.26Z" transform="translate(-25.96 -67.84)"/><path d="M275.37,157.86a7,7,0,0,1,5.5.5,6.58,6.58,0,0,1,3.2,4.2,5.37,5.37,0,0,1-.6,4.67,6.75,6.75,0,0,1-4,2.72,8.2,8.2,0,0,1-1.09.19l-2.64-9.56a4.53,4.53,0,0,0-2.82,2.27,4.65,4.65,0,0,0-.3,3.45,5.9,5.9,0,0,0,2.6,3.45l-1.55,1.58a7.23,7.23,0,0,1-2-2,8.19,8.19,0,0,1-1.27-2.63,7.07,7.07,0,0,1,.57-5.57A6.92,6.92,0,0,1,275.37,157.86Zm2.22,2.29,2,7a3.81,3.81,0,0,0,2.28-1.65,3.15,3.15,0,0,0,.29-2.5,3.82,3.82,0,0,0-1.62-2.28A4.3,4.3,0,0,0,277.59,160.15Z" transform="translate(-25.96 -67.84)"/><path d="M280.39,180.27l2.09-.16,1.08,14.11-2.1.16Z" transform="translate(-25.96 -67.84)"/><path d="M281.44,204.67a6.75,6.75,0,0,1,4.77,2.76,7.22,7.22,0,0,1,1.35,5.42,7.29,7.29,0,0,1-2.67,4.93,6.74,6.74,0,0,1-5.32,1.46,6.82,6.82,0,0,1-4.81-2.77,7.64,7.64,0,0,1,1.33-10.33A6.79,6.79,0,0,1,281.44,204.67Zm-.34,2.64a4.78,4.78,0,0,0-3.66.91,4.66,4.66,0,0,0-.84,6.59,4.84,4.84,0,0,0,3.31,1.81,4.71,4.71,0,0,0,3.62-.92,4.7,4.7,0,0,0,.85-6.59A4.76,4.76,0,0,0,281.1,207.31Z" transform="translate(-25.96 -67.84)"/><path d="M271.39,223.63l11,2.84,1.18-4.6,2.17.56-3,11.72-2.17-.56,1.19-4.62-11.05-2.83Z" transform="translate(-25.96 -67.84)"/><path d="M271.88,230.86l-.6,1.56q2,3,7.63,5.19l2.34.9-3.3,8.61L267.23,243l-.69,1.81-5-1.93.86-2.24,3,1.16,3.61-9.44-3-1.16.88-2.29Zm-1.56,4.08-2.16,5.64,8.74,3.34,1.46-3.83-.68-.26C274.19,238.5,271.74,236.86,270.32,234.94Z" transform="translate(-25.96 -67.84)"/><path d="M257.59,256.72l11.89,6.69-1.28,2.28L256.31,259ZM263.64,246l11.89,6.69-1.28,2.28-4.3-2.42-1.31,2.32a5.56,5.56,0,0,1-2.72,2.62,4,4,0,0,1-3.54-.45,4.06,4.06,0,0,1-2.13-2.63,5.32,5.32,0,0,1,.82-3.83Zm.37,3.21-1.13,2a2.76,2.76,0,0,0-.41,2.09,2.33,2.33,0,0,0,1.23,1.46,2.44,2.44,0,0,0,1.9.3,2.76,2.76,0,0,0,1.6-1.45l1.11-2Z" transform="translate(-25.96 -67.84)"/><path d="M255.21,260.53l2.78,7.94,7.94.5-1.81,2.39-4.83-.49-.91-.14,0,0c.13.33.26.61.37.85l1.78,4.53-1.81,2.39L256.06,271l-8.41-.51,1.79-2.36,5.36.47.84.09,0,0a6.17,6.17,0,0,1-.34-.76l-1.9-5Z" transform="translate(-25.96 -67.84)"/></g><path d="M357.68,270.37a11.89,11.89,0,0,1,3.57-8.8,12.31,12.31,0,0,1,9.06-3.55,11.61,11.61,0,0,1,8.85,3.45L377,264.64a8.88,8.88,0,0,0-6.52-2.7,7.85,7.85,0,0,0-5.87,2.4,8.25,8.25,0,0,0-2.33,6,8.35,8.35,0,0,0,2.36,6.06,8,8,0,0,0,6,2.42,9.87,9.87,0,0,0,3.94-.86,9.74,9.74,0,0,0,3.33-2.31l1.82,3.31a11.63,11.63,0,0,1-4.15,2.75,13.88,13.88,0,0,1-5.26,1,12.39,12.39,0,0,1-9.09-3.49A11.91,11.91,0,0,1,357.68,270.37Z" transform="translate(-25.96 -67.84)"/><path d="M381.07,282.16V258.58h20.59v23.58h-4.52V262.45H385.59v19.71Z" transform="translate(-25.96 -67.84)"/><path d="M403.57,270.32a11.63,11.63,0,0,1,3.68-8.78,13.33,13.33,0,0,1,18,0,11.63,11.63,0,0,1,3.68,8.8,11.79,11.79,0,0,1-3.68,8.85,13.22,13.22,0,0,1-18,0A11.73,11.73,0,0,1,403.57,270.32Zm4.61,0a8.31,8.31,0,0,0,2.35,6.08,8,8,0,0,0,11.48,0,8.29,8.29,0,0,0,2.38-6.06,8.14,8.14,0,0,0-2.38-6,8.14,8.14,0,0,0-11.48,0A8.19,8.19,0,0,0,408.18,270.32Z" transform="translate(-25.96 -67.84)"/><path d="M430.87,291.47V258.58h4.19v2.1l-.14,1.77H435a8,8,0,0,1,3.22-3.26,9.45,9.45,0,0,1,4.7-1.17,9.27,9.27,0,0,1,7.55,3.41,13.62,13.62,0,0,1,2.79,8.94,13,13,0,0,1-3,9,9.79,9.79,0,0,1-7.69,3.37,8.25,8.25,0,0,1-7.31-4h-.09a9.93,9.93,0,0,1,.18,2.05v10.71Zm4.37-21a9.72,9.72,0,0,0,1.8,5.85,5.68,5.68,0,0,0,4.87,2.49,6.14,6.14,0,0,0,4.84-2.26,9,9,0,0,0,2-6.12,9.59,9.59,0,0,0-1.84-6.13,5.88,5.88,0,0,0-4.82-2.31,6.31,6.31,0,0,0-4.85,2.15C435.9,265.56,435.24,267.67,435.24,270.46Z" transform="translate(-25.96 -67.84)"/><path d="M460.54,282.16V262.45h-8.2v-3.87h20.92v3.87H465v19.71Z" transform="translate(-25.96 -67.84)"/><path d="M493.45,273a6.2,6.2,0,1,1,1.79-4.36A5.94,5.94,0,0,1,493.45,273Z" transform="translate(-25.96 -67.84)"/><path d="M506,270.32a11.66,11.66,0,0,1,3.68-8.78,13.33,13.33,0,0,1,18,0,11.63,11.63,0,0,1,3.68,8.8,11.79,11.79,0,0,1-3.68,8.85,13.22,13.22,0,0,1-18,0A11.73,11.73,0,0,1,506,270.32Zm4.61,0a8.31,8.31,0,0,0,2.35,6.08,8.05,8.05,0,0,0,11.49,0,8.32,8.32,0,0,0,2.37-6.06,8.17,8.17,0,0,0-2.37-6,8.15,8.15,0,0,0-11.49,0A8.19,8.19,0,0,0,510.57,270.32Z" transform="translate(-25.96 -67.84)"/><path d="M530.42,279.27l2.09-3a8.25,8.25,0,0,0,6.15,2.79,5.82,5.82,0,0,0,3.52-1,3.35,3.35,0,0,0,1.37-2.87q0-3.58-4.84-3.58h-2.89v-3.26h2.47c3,0,4.47-1.14,4.47-3.4a3,3,0,0,0-1.12-2.52,4.81,4.81,0,0,0-3.07-.88,9.43,9.43,0,0,0-5.73,2.05l-1.68-3a13.36,13.36,0,0,1,8.2-2.57,9.28,9.28,0,0,1,5.73,1.68,5.56,5.56,0,0,1,2.24,4.71,5.31,5.31,0,0,1-3.45,5.35v.1c2.82.9,4.24,2.75,4.24,5.54a6.3,6.3,0,0,1-2.59,5.4,10.5,10.5,0,0,1-6.45,1.91A12.13,12.13,0,0,1,530.42,279.27Z" transform="translate(-25.96 -67.84)"/><path d="M546.91,278.43h2.88q3.69-5,3.69-15.51v-4.34h15.93v19.85h3.35v9.32h-4.15v-5.59H551.15v5.59h-4.24Zm7.54,0h10.44V262.26h-7.08v1.26Q557.81,273.21,554.45,278.43Z" transform="translate(-25.96 -67.84)"/><path d="M572.16,270.32a11.63,11.63,0,0,1,3.68-8.78,13.32,13.32,0,0,1,18,0,11.59,11.59,0,0,1,3.68,8.8,11.75,11.75,0,0,1-3.68,8.85,13.21,13.21,0,0,1-18,0A11.73,11.73,0,0,1,572.16,270.32Zm4.61,0a8.31,8.31,0,0,0,2.35,6.08,8,8,0,0,0,11.48,0,8.29,8.29,0,0,0,2.38-6.06,8.14,8.14,0,0,0-2.38-6,8.14,8.14,0,0,0-11.48,0A8.19,8.19,0,0,0,576.77,270.32Z" transform="translate(-25.96 -67.84)"/><path d="M599.45,291.47V258.58h4.2v2.1l-.14,1.77h.09a7.94,7.94,0,0,1,3.21-3.26,9.51,9.51,0,0,1,4.71-1.17,9.27,9.27,0,0,1,7.55,3.41,13.62,13.62,0,0,1,2.79,8.94,13,13,0,0,1-3,9,9.79,9.79,0,0,1-7.69,3.37,8.25,8.25,0,0,1-7.31-4h-.09a9.93,9.93,0,0,1,.18,2.05v10.71Zm4.38-21a9.72,9.72,0,0,0,1.8,5.85,5.67,5.67,0,0,0,4.86,2.49,6.16,6.16,0,0,0,4.85-2.26,9,9,0,0,0,1.95-6.12,9.58,9.58,0,0,0-1.83-6.13,5.89,5.89,0,0,0-4.83-2.31,6.29,6.29,0,0,0-4.84,2.15Q603.83,266.27,603.83,270.46Z" transform="translate(-25.96 -67.84)"/><path d="M622.37,270.32a11.66,11.66,0,0,1,3.68-8.78,13.33,13.33,0,0,1,18,0,11.63,11.63,0,0,1,3.68,8.8,11.79,11.79,0,0,1-3.68,8.85,13.21,13.21,0,0,1-18,0A11.74,11.74,0,0,1,622.37,270.32Zm4.61,0a8.32,8.32,0,0,0,2.36,6.08,8,8,0,0,0,11.48,0,8.33,8.33,0,0,0,2.38-6.06,8.18,8.18,0,0,0-2.38-6,8.14,8.14,0,0,0-11.48,0A8.2,8.2,0,0,0,627,270.32Z" transform="translate(-25.96 -67.84)"/><path d="M649.67,282.16V258.58h9.74a9.5,9.5,0,0,1,5.75,1.56,5.27,5.27,0,0,1,2.12,4.5,5.48,5.48,0,0,1-3.35,5.17v.05a5.58,5.58,0,0,1,3.3,2.05,5.67,5.67,0,0,1,1.17,3.54,5.84,5.84,0,0,1-2.35,5,10.41,10.41,0,0,1-6.32,1.75Zm4.52-13.61h4.43a4.31,4.31,0,0,0,3-.95,3.41,3.41,0,0,0,1-2.63c0-2.18-1.4-3.26-4.19-3.26h-4.29Zm0,10.44H659a5.63,5.63,0,0,0,3.59-1,3.27,3.27,0,0,0,1.21-2.7,3.3,3.3,0,0,0-1.25-2.75,5.77,5.77,0,0,0-3.59-1h-4.8Z" transform="translate(-25.96 -67.84)"/><path d="M667.79,282.39v-4.05a5.22,5.22,0,0,0,4-3.34q1.32-2.91,1.32-9.15v-7.27h15.79v23.58h-4.51V262.31h-7v3.54c0,5.44-.75,9.5-2.25,12.21A8.39,8.39,0,0,1,667.79,282.39Z" transform="translate(-25.96 -67.84)"/><path d="M690.8,270.37a12.15,12.15,0,0,1,3.36-8.94,11.39,11.39,0,0,1,8.48-3.41,9.38,9.38,0,0,1,7.5,3.15,11.71,11.71,0,0,1,2.7,7.9,14.32,14.32,0,0,1-.19,1.91H695.51a7.88,7.88,0,0,0,2.49,5.75,8.12,8.12,0,0,0,5.62,2.07,10.12,10.12,0,0,0,6.94-2.75l1.91,3.31a12.37,12.37,0,0,1-4.17,2.45,14.6,14.6,0,0,1-5,.9,12.22,12.22,0,0,1-9-3.51A12,12,0,0,1,690.8,270.37Zm4.85-2.66h12.62a6.54,6.54,0,0,0-1.7-4.56,5.4,5.4,0,0,0-4-1.63,6.66,6.66,0,0,0-4.54,1.65A7.38,7.38,0,0,0,695.65,267.71Z" transform="translate(-25.96 -67.84)"/><path d="M714.75,282.16V258.58h4.52v9.6h11.92v-9.6h4.52v23.58h-4.52V272.05H719.27v10.11Z" transform="translate(-25.96 -67.84)"/><path d="M739.16,282.16V258.58h4.33v14.07a21.85,21.85,0,0,1-.14,3.17h.09a29.62,29.62,0,0,1,2.1-3.17l10.16-14.07h4.37v23.58H755.7V268.09c0-.44,0-1,.07-1.84s.06-1.22.06-1.28h-.09c0,.06-.71,1.1-2,3.12l-10.2,14.07Z" transform="translate(-25.96 -67.84)"/><path d="M761.94,270.37a12.14,12.14,0,0,1,3.35-8.94,11.41,11.41,0,0,1,8.48-3.41,9.35,9.35,0,0,1,7.5,3.15,11.71,11.71,0,0,1,2.7,7.9,15.72,15.72,0,0,1-.18,1.91H766.64a8,8,0,0,0,2.49,5.75,8.12,8.12,0,0,0,5.62,2.07,10.1,10.1,0,0,0,6.94-2.75l1.91,3.31a12.37,12.37,0,0,1-4.17,2.45,14.54,14.54,0,0,1-5,.9,12.23,12.23,0,0,1-9-3.51A12,12,0,0,1,761.94,270.37Zm4.84-2.66h12.63a6.58,6.58,0,0,0-1.7-4.56,5.44,5.44,0,0,0-4-1.63,6.69,6.69,0,0,0-4.55,1.65A7.43,7.43,0,0,0,766.78,267.71Z" transform="translate(-25.96 -67.84)"/><path d="M805.19,273A6.2,6.2,0,1,1,807,268.6,6,6,0,0,1,805.19,273Z" transform="translate(-25.96 -67.84)"/><path d="M817.7,270.32a11.63,11.63,0,0,1,3.68-8.78,13.33,13.33,0,0,1,18,0,11.63,11.63,0,0,1,3.68,8.8,11.79,11.79,0,0,1-3.68,8.85,13.22,13.22,0,0,1-18,0A11.73,11.73,0,0,1,817.7,270.32Zm4.61,0a8.31,8.31,0,0,0,2.35,6.08,8.05,8.05,0,0,0,11.49,0,8.32,8.32,0,0,0,2.37-6.06,8.17,8.17,0,0,0-2.37-6,8.15,8.15,0,0,0-11.49,0A8.19,8.19,0,0,0,822.31,270.32Z" transform="translate(-25.96 -67.84)"/><path d="M849.89,282.16V262.45h-8.2v-3.87H862.6v3.87h-8.24v19.71Z" transform="translate(-25.96 -67.84)"/><path d="M858.69,278.43h2.89q3.67-5,3.68-15.51v-4.34h15.93v19.85h3.36v9.32H880.4v-5.59H862.93v5.59h-4.24Zm7.55,0h10.43V262.26h-7.08v1.26Q869.59,273.21,866.24,278.43Z" transform="translate(-25.96 -67.84)"/><path d="M885.76,282.16V258.58h4.52v8.53h4.61a9.6,9.6,0,0,1,6.24,1.89,6.9,6.9,0,0,1,2.33,5.7,7,7,0,0,1-2.17,5.45q-2.16,2-6.45,2Zm4.52-3.27h4a4.81,4.81,0,0,0,3.49-1.14,4.15,4.15,0,0,0,1.16-3.09,4.26,4.26,0,0,0-1.16-3.13,4.85,4.85,0,0,0-3.54-1.16h-3.91Zm16.81,3.27V258.58h4.52v23.58Z" transform="translate(-25.96 -67.84)"/><path d="M912.36,282.16l8-12.12-7.59-11.46H918l4.38,7.18.75,1.4h.09c.31-.53.57-1,.79-1.4l4.38-7.18h5.17L926,270,934,282.16h-5.13L924,274.28l-.75-1.25h-.09a9.76,9.76,0,0,1-.7,1.25l-4.94,7.88Z" transform="translate(-25.96 -67.84)"/></svg>