<svg id="Layer_1" data-name="Layer 1" xmlns="http://www.w3.org/2000/svg" viewBox="0 0 1454 156.42"><polygon points="1454 0 1442.97 0.46 1434.02 0.84 1430.13 0.97 1427.52 3.13 1427.12 3.79 1425.61 4.06 1424.12 4.08 1422.86 4.42 1420.04 6.23 1417.1 5.99 1416.92 5.58 1414.99 4.57 1413.93 3.37 1412.4 3.17 1411.41 4.52 1409.11 4.71 1407.45 5.44 1403.78 5.35 1401.89 4.93 1392.89 4.34 1389.86 3.79 1387.28 3.17 1385.35 3.17 1377.04 9.65 1373.82 9.65 1365.38 16.88 1356.54 20.9 1327.8 27.13 1324.38 27.13 1319.84 26.39 1316.75 25.21 1313.7 24.72 1310.71 24.23 1304.29 24.32 1302 27.64 1291.49 27.87 1290.45 27.2 1286 26.93 1284.57 28.15 1283.18 28.14 1281.14 29.18 1277.87 29.16 1276.63 28.58 1270.15 28.47 1268.4 29.13 1267.68 29.92 1265.68 30.32 1264.1 31.09 1262.89 32.15 1256.05 32.15 1255.61 31.41 1248.86 30.98 1243.14 30.7 1242.3 31.15 1241.29 31.68 1239.82 31.47 1239.49 30.7 1235.85 31.24 1228.72 31.35 1225.23 32.45 1223.7 33.76 1214.05 33.76 1212.6 32.28 1210.44 32.35 1201.27 32.23 1200.4 33.37 1198.18 33.76 1195.56 33.76 1189.62 38.98 1187.09 39.41 1184.56 39.58 1182.87 42.47 1177.69 42.41 1176.47 42.2 1171.92 42.36 1171.05 43.01 1169.47 43.66 1160.39 44.01 1154.34 47.69 1151.07 51.67 1148.18 52.59 1145.63 55.32 1138.51 55.6 1134.14 55.53 1132.06 57.07 1125.26 57.07 1124.55 55.91 1122.35 55.63 1121.21 55.06 1116.11 55.03 1109.55 51.05 1102.92 51.25 1101.11 52.65 1096.89 53.05 1094.88 54.86 1090.66 54.66 1083.63 53.26 1081.21 51.85 1073.58 52.65 1070.56 54.46 1063.93 53.66 1060.72 54.86 1055.89 55.87 1043.23 62.3 1036.4 62.3 1032.58 64.31 1019.52 64.31 1013.29 65.11 1009.87 69.33 978.72 69.33 974.5 72.15 969.88 72.15 966.26 75.36 963.65 75.36 960.84 73.75 950.59 73.95 947.77 75.36 942.95 75.36 942.35 77.37 939.53 77.37 938.33 79.18 932.9 79.18 929.89 78.17 927.68 79.18 922.25 80.79 916.83 82.39 907.18 82.39 901.96 83.2 898.34 81.99 887.69 83.2 884.87 85.41 864.38 84.2 862.37 82.19 857.54 82.6 854.93 85.41 851.51 87.22 843.07 87.22 839.66 89.83 834.23 91.64 829.61 91.64 825.79 93.25 824.38 95.26 816.34 95.26 813.53 97.07 807.9 97.07 806.3 100.68 799.26 100.68 793.03 101.69 786 103.7 780.37 105.31 776.35 107.92 769.52 111.13 761.08 111.13 758.26 111.13 755.05 112.74 750.03 112.74 747.82 111.13 737.77 110.53 727 105.91 717.27 104.9 713.25 104.9 710.84 106.91 707.62 106.71 703.4 105.31 700.19 105.71 695.57 108.32 689.34 108.32 687.33 106.51 679.09 106.71 675.87 108.32 668.03 102.09 663.21 106.31 658.18 106.31 655.57 104.5 651.35 105.51 648.54 103.7 640.9 104.1 638.49 104.9 636.08 103.7 633.27 104.7 630.65 104.1 624.22 103.9 617.79 103.5 614.38 102.69 611.56 101.08 604.53 100.68 600.31 99.48 595.68 99.88 589.25 100.48 583.02 95.46 577 95.06 573.38 93.65 561.32 93.85 552.08 95.66 548.86 94.05 545.24 96.86 539.62 96.26 536.2 95.86 533.18 97.87 530.17 97.67 523.94 94.86 513.49 92.64 506.86 91.84 504.65 94.45 501.83 94.25 498.02 96.46 496.01 96.46 491.59 92.44 489.58 94.25 485.96 94.45 477.52 87.62 471.69 86.82 468.88 85.61 466.87 84 459.43 83.4 457.22 85.41 455.01 85.61 453.2 84.61 448.38 85.41 439.94 85.41 433.91 89.63 431.7 90.43 430.09 93.05 427.28 92.24 425.27 90.64 417.03 98.67 407.78 98.07 402.36 96.66 396.33 96.66 393.11 97.87 383.47 95.46 380.85 95.46 377.24 98.27 374.62 97.67 373.22 95.46 369.6 95.86 367.79 96.86 365.98 95.86 357.14 93.65 350.11 94.86 346.69 95.66 342.67 95.66 339.45 93.4 336.92 93.27 333.75 93.46 330.01 91.05 328.3 91.69 326.28 92 324.19 90.17 319.88 90.29 310.9 90.46 304.08 88.46 298.1 86.14 294.27 85.64 282.13 84.47 272.49 83.81 258.85 83.31 246.38 81.65 239.9 79.48 227.92 79.48 226.59 75.49 223.43 72.17 220.11 70.17 216.62 68.18 212.13 68.18 209.47 67.18 205.97 64.85 201.48 62.52 196.16 61.52 192.67 60.69 188.18 59.03 182.19 58.87 179.87 57.53 176.87 55.87 167.56 56.04 165.07 55.04 160.08 54.38 156.75 54.04 148.94 54.21 146.61 54.54 144.28 52.55 140.96 52.21 137.3 51.71 133.64 50.55 131.15 48.72 114.85 47.89 109.03 46.39 101.21 45.73 91.4 40.07 87.41 38.91 85.58 39.58 82.92 40.07 81.26 42.4 78.27 43.07 75.61 41.9 73.94 40.24 63.3 40.91 61.47 41.24 44.34 41.74 35.37 47.89 33.37 47.89 28.55 42.9 19.73 43.07 16.57 43.57 14.91 44.23 11.92 44.4 9.43 43.4 4.27 41.41 0 40.74 0 156.42 1454 156.42 1454 0" style="fill:#003531"/></svg>